<svg id="visual" viewBox="0 0 900 600" width="900" height="600" xmlns="http://www.w3.org/2000/svg" xmlns:xlink="http://www.w3.org/1999/xlink" version="1.1"><rect x="0" y="0" width="900" height="600" fill="#08080b"></rect><path d="M0 180L150 180L150 125L300 125L300 214L450 214L450 57L600 57L600 69L750 69L750 93L900 93L900 140L900 601L900 601L750 601L750 601L600 601L600 601L450 601L450 601L300 601L300 601L150 601L150 601L0 601Z" fill="#0a0a0c"></path><path d="M0 274L150 274L150 164L300 164L300 155L450 155L450 268L600 268L600 242L750 242L750 257L900 257L900 211L900 601L900 601L750 601L750 601L600 601L600 601L450 601L450 601L300 601L300 601L150 601L150 601L0 601Z" fill="#08090b"></path><path d="M0 383L150 383L150 296L300 296L300 272L450 272L450 249L600 249L600 388L750 388L750 268L900 268L900 308L900 601L900 601L750 601L750 601L600 601L600 601L450 601L450 601L300 601L300 601L150 601L150 601L0 601Z" fill="#07080a"></path><path d="M0 366L150 366L150 452L300 452L300 401L450 401L450 463L600 463L600 436L750 436L750 400L900 400L900 404L900 601L900 601L750 601L750 601L600 601L600 601L450 601L450 601L300 601L300 601L150 601L150 601L0 601Z" fill="#060709"></path><path d="M0 481L150 481L150 464L300 464L300 483L450 483L450 548L600 548L600 533L750 533L750 491L900 491L900 554L900 601L900 601L750 601L750 601L600 601L600 601L450 601L450 601L300 601L300 601L150 601L150 601L0 601Z" fill="#050608"></path></svg>